<?xml version="1.0" encoding="UTF-8"?>
<svg id="Calque_2" data-name="Calque 2" xmlns="http://www.w3.org/2000/svg" viewBox="0 0 235.15 152.49">
  <defs>
    <style>
      .cls-1 {
        fill: #a0a0a0;
      }
    </style>
  </defs>
  <g id="Calque_2-2" data-name="Calque 2">
    <g>
      <g>
        <g>
          <path class="cls-1" d="m6.28,99.91c1.69-8.51,3.38-17.03,5.07-25.54.99-4.99.34-6.56-2.17-6.9-.26-.03-.51-.07-.77-.1.03-.15.06-.29.09-.44,5.11-.4,10.23-.78,15.35-1.13,14.17-.95,19.56,5.92,17.72,19.28-1.68,12.25-8.54,20.67-25.06,21.77-5.5.37-11,.78-16.5,1.21.03-.15.06-.29.09-.44.3-.08.6-.16.9-.23,2.94-.77,4.3-2.49,5.29-7.48Zm27.93-14.42c1.69-11.14-2.02-15.66-11.63-15.01-.58.04-1.15.08-1.73.12-1.62.11-2.56,1.15-2.94,3.18-1.61,8.6-3.21,17.2-4.82,25.79-.38,2.03.24,2.96,1.96,2.84.61-.04,1.22-.08,1.83-.13,11.31-.76,15.84-6.95,17.34-16.79Z"/>
          <path class="cls-1" d="m75.23,80.61c-.8,10.22-7.46,17.66-16.94,18.05-9.48.39-14.55-6.56-13.11-16.8,1.43-10.24,8.11-17.83,16.94-18.2,8.83-.36,13.92,6.74,13.12,16.96Zm-6.1.16c.75-8.22-1.81-13.53-7.43-13.29-5.62.23-9.37,5.8-10.41,14.03-1.05,8.28,1.53,13.58,7.42,13.33,5.89-.24,9.67-5.8,10.42-14.07Z"/>
          <path class="cls-1" d="m85.48,96.82c.24.04.47.08.71.12,0,.12-.01.24-.02.36-3.88.09-7.75.19-11.63.31,0-.12.02-.24.03-.36.24-.05.48-.11.73-.16,2.37-.52,3.33-1.91,3.63-6.04.53-7.05,1.05-14.1,1.58-21.16.31-4.13-.4-5.47-2.56-5.86-.22-.04-.44-.08-.66-.12,0-.12.02-.24.03-.36,2.54-.08,5.08-.15,7.62-.21,4.13,7.21,8.44,14.43,12.94,21.67.83,1.3,1.26,1.11,1.33-.56.2-4.99.4-9.98.59-14.97.16-4.13-.59-5.48-2.77-5.89-.22-.04-.44-.08-.67-.12,0-.12.01-.24.02-.36,3.65-.06,7.3-.11,10.95-.15,0,.12,0,.24,0,.36-.23.05-.45.1-.68.14-2.21.48-3.07,1.85-3.2,5.98-.23,7.05-.47,14.09-.7,21.14-.14,4.13.67,5.48,2.99,5.91.24.04.47.09.71.13,0,.12,0,.24,0,.36-2.7.03-5.4.06-8.1.1-4.61-7.26-9.04-14.5-13.28-21.72-.78-1.29-1.16-1.1-1.27.58-.34,5.01-.68,10.02-1.02,15.02-.28,4.13.43,5.47,2.74,5.87Z"/>
          <path class="cls-1" d="m117.06,96.4c.24.05.48.09.71.13,0,.12,0,.24,0,.36-3.86,0-7.72.03-11.58.07,0-.12,0-.24,0-.36.24-.05.48-.1.72-.14,2.2-.43,3.23-1.84,4.39-5.98,1.98-7.06,3.89-14.11,5.74-21.16,1.07-4.13.54-5.49-1.61-5.94-.24-.04-.48-.09-.72-.13,0-.12,0-.24,0-.36,4.58-.02,9.15-.02,13.73,0,0,.12,0,.24,0,.36-.22.04-.45.09-.67.13-2.19.44-1.92,1.99-.93,5.94,1.75,7.05,3.56,14.11,5.43,21.16,1.06,4.04,2.43,5.51,4.78,5.98.24.05.48.1.72.14,0,.12,0,.24.01.36-4.56-.05-9.12-.08-13.68-.08,0-.12,0-.24,0-.36.24-.05.48-.09.71-.14,2.14-.4,2.69-1.62,1.62-5.94-.63-2.51-1.26-5.02-1.88-7.53-.19-1-.8-1.5-1.68-1.5-1.36,0-2.72,0-4.08,0-.88,0-1.44.5-1.73,1.5-.66,2.51-1.32,5.02-1.99,7.54-.99,3.68-.64,5.44,1.98,5.93Zm2.17-16.79c1.09,0,2.19,0,3.28,0,.83,0,1.11-.5.87-1.5-.67-2.81-1.33-5.63-1.98-8.44-.36-1.68-.45-1.68-.91,0-.72,2.81-1.45,5.63-2.18,8.44-.24,1,.08,1.5.92,1.5Z"/>
          <path class="cls-1" d="m148.44,96.63c.24.05.48.1.72.15,0,.12.01.24.02.36-3.88-.07-7.75-.12-11.63-.17,0-.12,0-.24-.01-.36.24-.04.47-.09.71-.13,2.32-.43,3.13-1.78,2.99-5.9-.24-7.05-.48-14.09-.73-21.14-.14-4.13-1-5.5-3.21-5.98-.23-.05-.45-.1-.68-.14,0-.12,0-.24-.01-.36,2.54.03,5.08.06,7.63.1,4.93,7.39,10.04,14.81,15.33,22.25.98,1.34,1.39,1.17,1.27-.51-.35-4.99-.69-9.99-1.04-14.98-.29-4.13-1.19-5.51-3.42-6.02-.23-.05-.46-.1-.68-.15,0-.12-.02-.24-.02-.36,3.65.09,7.3.19,10.94.3.01.12.02.24.03.36-.22.04-.44.08-.66.12-2.16.39-2.87,1.73-2.56,5.86.54,7.05,1.07,14.11,1.61,21.16.31,4.13,1.27,5.52,3.64,6.04.24.05.48.11.73.16.01.12.02.24.03.36-2.7-.08-5.4-.16-8.1-.23-5.41-7.47-10.64-14.9-15.68-22.32-.93-1.33-1.28-1.15-1.22.52.21,5.01.41,10.01.62,15.02.17,4.13,1.03,5.5,3.39,6Z"/>
          <path class="cls-1" d="m169.49,63.68c1.88.06,3.2,1.69,3.42,4.1.31,3.23-1.48,6.96-4.37,8.55-.04-.09-.08-.18-.11-.28,1.5-1.27,2.09-3.74,1.95-5.33-.26-2.95-3.03-2.09-3.23-4.5-.12-1.41.72-2.6,2.34-2.55Z"/>
          <path class="cls-1" d="m186.92,97.79c.24.06.49.11.73.17.01.12.03.24.04.36-3.87-.17-7.75-.32-11.63-.46-.01-.12-.02-.24-.03-.36.23-.04.47-.07.7-.11,2.29-.37,3.01-1.7,2.59-5.83-.71-7.06-1.42-14.12-2.13-21.18-.42-4.13-1.37-5.53-3.61-6.06-.23-.05-.46-.11-.69-.16-.01-.12-.02-.24-.03-.36,2.54.09,5.08.19,7.62.29,5.41,7.52,11.01,15.07,16.79,22.66,1.06,1.36,1.46,1.2,1.23-.48-.68-5.01-1.36-10.01-2.04-15.02-.56-4.14-1.56-5.55-3.81-6.11-.23-.06-.46-.11-.69-.17-.02-.12-.03-.24-.05-.36,3.65.18,7.29.37,10.94.58.02.12.04.24.05.36-.22.03-.43.07-.65.1-2.13.33-2.74,1.66-2.16,5.8,1,7.07,2.01,14.14,3.01,21.22.59,4.14,1.64,5.55,4.03,6.14.24.06.49.12.73.18.02.12.04.24.05.36-2.7-.15-5.4-.3-8.1-.44-5.9-7.61-11.61-15.18-17.14-22.73-1.01-1.35-1.36-1.19-1.18.49.54,5.01,1.08,10.03,1.62,15.04.44,4.14,1.4,5.53,3.78,6.09Z"/>
          <path class="cls-1" d="m224.9,67.17c-.29-.07-.58-.15-.87-.22-.03-.14-.05-.29-.08-.43,3.62.26,7.23.53,10.84.81.03.14.06.29.09.43-.25.03-.51.07-.76.1-2.22.3-2.27,2.63-2.99,6.7-1.06,5.65-2.19,11.31-3.38,16.96.47,2.52.94,5.05,1.4,7.57.9,4.89,2.16,6.56,5.03,7.3.29.07.59.15.88.22.03.14.06.29.08.43-5.33-.39-10.66-.76-16-1.09-.02-.14-.05-.29-.07-.43.27-.04.55-.07.82-.11,2.68-.36,3.41-1.9,2.56-6.78-.39-2.27-.79-4.54-1.19-6.81-3.41-6.23-6.75-12.46-10.01-18.67-2.98-5.7-4.07-6.77-5.93-7.25-.27-.07-.54-.14-.82-.21-.02-.14-.04-.29-.06-.43,4.71.27,9.41.56,14.12.88.03.14.05.29.08.43-.41.03-.82.05-1.24.08-1.8.09-1.84,2.37.09,5.94,2,3.74,4.03,7.48,6.08,11.22.87,1.54,1.03,1.5,1.3.04.8-3.72,1.58-7.45,2.32-11.17.65-3.45.05-4.87-2.3-5.52Z"/>
        </g>
        <g>
          <path class="cls-1" d="m52.04,111.93v-.12h2.87v.34c0,1.19.59,1.66,3.19,1.66,2.29,0,2.83-.34,2.83-1.21,0-.78-.44-1.07-1.76-1.3l-3.6-.52c-2.3-.36-3.65-1.51-3.65-3.6,0-1.93,1.57-3.96,5.87-3.96,3.94,0,5.78,1.82,5.78,4.51v.11h-2.89v-.27c0-1.22-.63-1.74-3.17-1.74-2.07,0-2.7.4-2.7,1.22,0,.75.42,1.01,1.49,1.2l3.6.57c2.87.46,3.9,1.85,3.9,3.61,0,2.09-1.63,3.96-5.7,3.96s-6.06-1.53-6.06-4.51Z"/>
          <path class="cls-1" d="m64.11,116.25l5.6-12.81h4.09l5.64,12.81h-3.29l-1.2-2.83h-6.41l-1.22,2.83h-3.21Zm5.55-5.41h4.19l-1.2-2.79-.78-1.99h-.21l-.78,1.99-1.2,2.79Z"/>
          <path class="cls-1" d="m80.12,116.25v-12.81h3.88l3,6.31,1.21,3h.21l1.17-3,2.91-6.31h3.9v12.81h-2.87v-6.5l.1-2.01h-.21l-.75,2.01-2.68,5.74h-3.48l-2.68-5.74-.75-2.01h-.21l.11,2.01v6.5h-2.87Z"/>
          <path class="cls-1" d="m102.62,116.25v-4.25l-5.68-8.57h3.54l2.45,3.75,1.07,1.72h.21l1.07-1.72,2.45-3.75h3.56l-5.78,8.59v4.23h-2.89Z"/>
          <path class="cls-1" d="m114.79,116.25v-12.81h3.06l4.59,6.06,1.76,2.7h.21l-.13-2.58v-6.18h2.87v12.81h-3.06l-4.72-6.12-1.63-2.41h-.19l.12,2.35v6.18h-2.87Z"/>
          <path class="cls-1" d="m128.39,109.84c0-4,2.72-6.6,7.11-6.6,4.02,0,6.56,1.87,6.56,4.95v.15h-3.19v-.15c0-1.49-.98-2.2-3.44-2.2-2.91,0-4,.99-4,3.84s1.05,3.84,3.86,3.84,3.84-.46,3.92-2.09h-4.34v-2.12h7.21v6.77h-2.66v-2.75h-.15c-.44,1.68-1.78,2.94-4.55,2.94-3.92,0-6.33-2.6-6.33-6.6Z"/>
          <path class="cls-1" d="m143.49,116.25v-12.81h10.84v2.58h-7.97v2.51h7.69v2.56h-7.69v2.58h7.97v2.58h-10.84Z"/>
          <path class="cls-1" d="m155.43,116.25v-2.58l7.54-7.44v-.21h-7.36v-2.58h11.69v2.58l-7.78,7.44v.21h7.94v2.58h-12.01Z"/>
          <path class="cls-1" d="m167.88,116.25l5.6-12.81h4.09l5.64,12.81h-3.29l-1.2-2.83h-6.41l-1.22,2.83h-3.21Zm5.55-5.41h4.19l-1.2-2.79-.78-1.99h-.21l-.78,1.99-1.2,2.79Z"/>
        </g>
        <g>
          <path class="cls-1" d="m124.4,12.99c-.58.45-1.16.9-1.74,1.35-.69-1.32-1.38-2.64-2.07-3.95-1-1.91-2.01-3.83-3.01-5.74-1,1.91-2,3.83-3.01,5.74-.69,1.32-1.38,2.64-2.07,3.95-.58-.45-1.16-.9-1.74-1.35.18-.96.56-2.39,1.39-3.96,1.09-2.06,2.13-2.76,3.53-5.01.52-.83,1.21-2.06,1.84-3.68.02-.06.04-.11.06-.16.02.06.04.11.06.16.63,1.62,1.32,2.84,1.84,3.68,1.41,2.25,2.45,2.96,3.53,5.01.83,1.57,1.21,3.01,1.39,3.96Z"/>
          <path class="cls-1" d="m117.63,0v.33c-.02-.06-.04-.11-.06-.16.02-.06.04-.11.06-.17Z"/>
          <path class="cls-1" d="m120.43,14.82c0,.75-.35,1.2-1.18,2.53-.41.66-.98,1.6-1.62,2.78-.02.04-.04.07-.06.11-.02-.04-.04-.08-.06-.11-.64-1.18-1.21-2.12-1.62-2.78-.82-1.33-1.18-1.78-1.18-2.53,0-.88.48-1.39,1.1-2.35.51-.8,1.16-1.97,1.7-3.56.02-.06.04-.12.06-.18.02.06.04.12.06.18.55,1.59,1.2,2.76,1.71,3.56.61.96,1.09,1.48,1.1,2.35Z"/>
          <path class="cls-1" d="m117.63,8.54v.37c-.02-.06-.04-.12-.06-.18.02-.06.04-.12.06-.19Z"/>
          <path class="cls-1" d="m117.57,20.25s.04-.08.06-.11v.23s-.04-.08-.06-.11Z"/>
          <path class="cls-1" d="m103.25,14.43l1.96-.26c-.26-1.63-.52-3.25-.78-4.88.65-.12,1.75-.24,3.05.09.8.2,1.43.51,1.87.78l.57-1.39v-.52c-.83-.43-1.53-.68-2.01-.83-1.51-.47-2.4-.4-4.53-.78-.9-.16-1.62-.33-2.05-.44.51,2.14,1.02,4.27,1.53,6.41.13.61.26,1.22.39,1.83Z"/>
          <path class="cls-1" d="m104.17,17.35c.48-.31,3.01-1.89,5.88-1.04.71.21,2.52.75,3.31,2.5.56,1.25.31,2.46.18,2.94l-6.19,5.67h-3.88c.45-.52,1.1-1.38,1.61-2.57.45-1.05,1.17-2.71.7-4.66-.13-.55-.5-1.69-1.61-2.83Z"/>
          <path class="cls-1" d="m96.49,26.28c.18.12,2.32,1.6,4.84.65,2.45-.92,3.12-3.32,3.23-3.75.15-.57.73-2.87-.73-4.19-1.03-.94-2.45-.81-2.8-.77.11.41.72,2.92-.83,5.32-1.27,1.96-3.18,2.59-3.7,2.75Z"/>
          <path class="cls-1" d="m96.89,18.4c1.04-.16,2.27.55,2.75,1.53.67,1.36-.06,3.44-2.01,4.45-.81.35-2.14.81-3.79.82-4.15.02-7.98-2.79-9.54-6.36-.38-.88-1.17-2.73-.7-5.06.1-.51.66-3,3.01-4.66.54-.39,2.06-1.43,4.18-1.35.55.02,2.93.11,4.27,1.96.16.22,1.64,2.33.57,3.79-.72.98-2.33,1.31-3.4.65-.69-.42-1.42-1.41-1.09-2.27.21-.53.74-.78.96-.87-.26-.16-1.29-.78-2.48-.48-1.81.46-2.29,2.58-2.35,2.88-.33,1.54.36,2.77.78,3.53.35.63,1.33,2.39,3.4,2.96.32.09,1.85.48,3.36-.22,1.12-.52,1.21-1.18,2.09-1.31Z"/>
          <path class="cls-1" d="m125.53,29.42c-.7.34-1.66.92-2.61,1.83-.79.76-1.34,1.53-1.7,2.14h-7.29c-.36-.6-.91-1.37-1.71-2.14-.95-.91-1.91-1.49-2.61-1.83.35-.93,1.21-2.83,3.14-4.49,1.84-1.59,3.75-2.18,4.76-2.41l.06-.02s.04.01.06.02c1.01.23,2.91.82,4.76,2.41,1.93,1.66,2.79,3.56,3.13,4.49Z"/>
          <path class="cls-1" d="m117.63,22.49v.03s-.04-.01-.06-.02c.02,0,.04-.01.06-.02Z"/>
          <path class="cls-1" d="m123.66,38.9c-.01.13-.07.66-.46.95-.51.39-1.29.13-1.75,0-.87-.25-2.1-.46-3.82-.33-.02,0-.04,0-.06,0s-.04,0-.06,0c-1.71-.12-2.95.09-3.82.33-.46.13-1.23.39-1.75,0-.38-.29-.44-.81-.46-.95-.13-1.23,1.11-2.27,1.7-2.76.33-.28,1.02-.79,2.03-1.15.93-.32,1.75-.37,2.29-.36.04,0,.08,0,.12,0,.55-.02,1.37.04,2.3.36,1.01.35,1.7.87,2.02,1.15.59.49,1.83,1.53,1.7,2.76Z"/>
          <path class="cls-1" d="m117.63,39.51h0s-.04,0-.06,0c.02,0,.04,0,.06,0Z"/>
          <path class="cls-1" d="m126.11,48.95c-1.01-.75-2.63-1.74-4.8-2.36-1.44-.4-2.73-.53-3.73-.55-1,.02-2.29.15-3.73.55-2.18.61-3.79,1.61-4.8,2.36-.06-.37-.57-3.79,1.99-6.44,2.53-2.62,5.93-2.28,6.53-2.19,0,0,.01,0,.02,0,.61-.09,4.01-.43,6.54,2.19,2.56,2.65,2.05,6.07,1.99,6.44Z"/>
          <path class="cls-1" d="m106.78,49.73l.26-.57c.07-2.06.34-3.68.57-4.75.74-3.51,2.22-7.08,2.22-7.08h0s.7-2.71.7-2.71h0c0-.44-.09-1.5-.85-2.45-.96-1.19-2.59-1.72-4.25-1.4-2.19.52-4.39,1.05-6.58,1.57-.72.04-1.81.04-3.09-.22-2.58-.52-4.33-1.75-7.98-4.66-2.5-1.99-4.67-3.8-6.47-5.33-.18-.19-1.35-1.41-2.68-1.17-1.38.26-1.99,1.9-2.31,2.75-.76,2.03-.35,3.53-.13,6.32.12,1.44.2,3.51.04,6.06l-.31.65.22.31.87-.92c.31-1.69.61-3.37.92-5.06.04-.42.24-2.14,1.58-3.01,1.33-.88,2.97-.37,4.18,0,1.09.34,1.82.76,4.23,2.44,4.06,2.83,4.57,3.43,6.32,4.05,1.47.52,2.78.69,3.62.74,1.32.09,1.98.13,2.83-.13,1.17-.36,1.55-.94,2.44-.83.79.1,1.32.65,1.53.87.74.77.9,1.7,1.05,2.75.32,2.27.48,3.4.44,4.49-.1,2.73-.76,3.88-.13,6.06.11.38.23.68.31.87l.48.35Z"/>
          <path class="cls-1" d="m73.79,17.22c-.34-.15-.9-.35-1.57-.31-2.32.15-3.78,2.98-4.5,4.38-.51.99-1.2,2.64-1.42,4.9-.04.97-.05,2.27.08,3.81.1,1.16.24,2.61.76,4.41.58,1.99,1.14,3.98,2.92,5.39.62.49,1.21.78,1.63.96l.83-1.57c.4-1.08.82-2.55,1-4.32.21-2.07.02-3.81-.22-5.06-1.03-1.09-1.51-2.17-1.74-2.83-.67-1.92-.37-3.57-.15-4.81.13-.71.34-1.86,1.07-3.17.44-.8.93-1.39,1.31-1.79Z"/>
          <path class="cls-1" d="m75.14,40.76c.25.15.71.37,1.22.26.49-.11.9-.51,1.35-1.48.64-1.37.57-2.18.96-4.4.4-2.29.72-2.83,1.13-3.23.58-.56,1.24-.74,1.74-.87.33-.09,2.01-.51,4.14.35.94.38,1.24.71,3.92,3.05,3.03,2.64,3.41,2.89,4.01,3.14.96.4,2.67,1.13,4.53.65.81-.2,1.35-.56,2.49-.57.52,0,1.34,0,2.08.48.63.41,1.05,1.05,1.39,2.11.68,2.07.27,3.16.51,7.2.1,1.68.22,2.34.72,2.9.51.57,1.18.81,1.44,1.61.15.47.08.91,0,1.22l-.39.61s-.64.08-.66,0c0,0,0,0,0,0,.05-.09-1.42-1.11-1.96-1.66-.37-.37-.55-.99-.92-2.22-.44-1.51-.66-2.8-.75-3.4-.31-2.07-.17-2.56-.69-3.36-.53-.81-1.26-1.2-1.5-1.32-1.58-.82-2.69-.07-5.34-.38-.48-.06-1.36-.19-2.36-.52-2.05-.67-3.56-1.82-5.49-3.31-1.75-1.35-2.3-1.99-3.15-1.83-.91.17-1.46,1.15-1.69,1.55-.99,1.76-.05,2.95-1.13,4.29-.49.6-1.13.93-1.39,1.05-.74.33-1.39.35-1.79.35-.73,0-1.23,0-1.7-.35-.59-.44-.72-1.13-.74-1.22-.05-.29-.03-.54,0-.7Z"/>
          <path class="cls-1" d="m63.31,29.21c-.16,1.46-.19,3.6.52,6.02.37,1.28,1.08,3.59,3.14,5.69,1.24,1.27,2.53,2.01,3.4,2.42-.14.27-.56.97-1.37,1.27-.37.14-.86.2-1.63,0-2.36-.62-3.99-2.92-4.38-3.49-1.29-1.87-1.68-3.61-1.77-4.05-.15-.75-.54-2.76.23-5.11.31-.94.71-1.66,1.01-2.15l.86-.59Z"/>
          <path class="cls-1" d="m117.57.17c-.02.06-.04.11-.06.16v-.33c.02.06.04.11.06.17Z"/>
          <path class="cls-1" d="m117.51,20.13s.04.07.06.11c-.02.04-.04.07-.06.11v-.23Z"/>
          <path class="cls-1" d="m117.57,8.73c-.02.06-.04.12-.06.18v-.37c.02.07.04.13.06.19Z"/>
          <path class="cls-1" d="m131.9,14.43l-1.96-.26c.26-1.63.52-3.25.78-4.88-.65-.12-1.75-.24-3.05.09-.8.2-1.43.51-1.87.78l-.57-1.39v-.52c.83-.43,1.53-.68,2.01-.83,1.51-.47,2.4-.4,4.53-.78.9-.16,1.62-.33,2.05-.44-.51,2.14-1.02,4.27-1.53,6.41-.13.61-.26,1.22-.39,1.83Z"/>
          <path class="cls-1" d="m130.98,17.35c-.48-.31-3.01-1.89-5.88-1.04-.71.21-2.52.75-3.31,2.5-.56,1.25-.31,2.46-.18,2.94l6.19,5.67h3.88c-.45-.52-1.1-1.38-1.61-2.57-.45-1.05-1.17-2.71-.7-4.66.13-.55.5-1.69,1.61-2.83Z"/>
          <path class="cls-1" d="m138.65,26.28c-.18.12-2.32,1.6-4.84.65-2.45-.92-3.12-3.32-3.23-3.75-.15-.57-.73-2.87.73-4.19,1.03-.94,2.45-.81,2.8-.77-.11.41-.72,2.92.83,5.32,1.27,1.96,3.18,2.59,3.7,2.75Z"/>
          <path class="cls-1" d="m138.26,18.4c-1.04-.16-2.27.55-2.75,1.53-.67,1.36.06,3.44,2.01,4.45.81.35,2.14.81,3.79.82,4.15.02,7.98-2.79,9.54-6.36.38-.88,1.17-2.73.7-5.06-.1-.51-.66-3-3.01-4.66-.54-.39-2.06-1.43-4.18-1.35-.55.02-2.93.11-4.27,1.96-.16.22-1.64,2.33-.57,3.79.72.98,2.33,1.31,3.4.65.69-.42,1.42-1.41,1.09-2.27-.21-.53-.74-.78-.96-.87.26-.16,1.29-.78,2.48-.48,1.81.46,2.29,2.58,2.35,2.88.33,1.54-.36,2.77-.78,3.53-.35.63-1.33,2.39-3.4,2.96-.32.09-1.85.48-3.36-.22-1.12-.52-1.21-1.18-2.09-1.31Z"/>
          <path class="cls-1" d="m117.57,22.51l-.06.02v-.03s.04.01.06.02Z"/>
          <path class="cls-1" d="m117.57,39.51s-.04,0-.06,0h0s.04,0,.06,0Z"/>
          <path class="cls-1" d="m128.36,49.73l-.26-.57c-.07-2.06-.34-3.68-.57-4.75-.74-3.51-2.22-7.08-2.22-7.08h0s-.7-2.71-.7-2.71h0c0-.44.09-1.5.85-2.45.96-1.19,2.59-1.72,4.25-1.4l6.58,1.57c.72.04,1.81.04,3.09-.22,2.58-.52,4.33-1.75,7.98-4.66,2.5-1.99,4.67-3.8,6.47-5.33.18-.19,1.35-1.41,2.68-1.17,1.38.26,1.99,1.9,2.31,2.75.76,2.03.35,3.53.13,6.32-.12,1.44-.2,3.51-.04,6.06l.31.65-.22.31-.87-.92c-.31-1.69-.61-3.37-.92-5.06-.04-.42-.24-2.14-1.58-3.01-1.33-.88-2.97-.37-4.18,0-1.09.34-1.82.76-4.23,2.44-4.06,2.83-4.57,3.43-6.32,4.05-1.47.52-2.78.69-3.62.74-1.32.09-1.98.13-2.83-.13-1.17-.36-1.55-.94-2.44-.83-.79.1-1.32.65-1.53.87-.74.77-.9,1.7-1.05,2.75-.32,2.27-.48,3.4-.44,4.49.1,2.73.76,3.88.13,6.06-.11.38-.23.68-.31.87l-.48.35Z"/>
          <path class="cls-1" d="m161.36,17.22c.34-.15.9-.35,1.57-.31,2.32.15,3.78,2.98,4.5,4.38.51.99,1.2,2.64,1.42,4.9.04.97.05,2.27-.08,3.81-.1,1.16-.24,2.61-.76,4.41-.58,1.99-1.14,3.98-2.92,5.39-.62.49-1.21.78-1.63.96l-.83-1.57c-.4-1.08-.82-2.55-1-4.32-.21-2.07-.02-3.81.22-5.06,1.03-1.09,1.51-2.17,1.74-2.83.67-1.92.37-3.57.15-4.81-.13-.71-.34-1.86-1.07-3.17-.44-.8-.93-1.39-1.31-1.79Z"/>
          <path class="cls-1" d="m160.01,40.76c-.25.15-.71.37-1.22.26-.49-.11-.9-.51-1.35-1.48-.64-1.37-.57-2.18-.96-4.4-.4-2.29-.72-2.83-1.13-3.23-.58-.56-1.24-.74-1.74-.87-.33-.09-2.01-.51-4.14.35-.94.38-1.24.71-3.92,3.05-3.03,2.64-3.41,2.89-4.01,3.14-.96.4-2.67,1.13-4.53.65-.81-.2-1.35-.56-2.49-.57-.52,0-1.34,0-2.08.48-.63.41-1.05,1.05-1.39,2.11-.68,2.07-.27,3.16-.51,7.2-.1,1.68-.22,2.34-.72,2.9-.51.57-1.18.81-1.44,1.61-.15.47-.08.91,0,1.22l.39.61s.64.08.66,0c0,0,0,0,0,0-.05-.09,1.42-1.11,1.96-1.66.37-.37.55-.99.92-2.22.44-1.51.66-2.8.75-3.4.31-2.07.17-2.56.69-3.36.53-.81,1.26-1.2,1.5-1.32,1.58-.82,2.69-.07,5.34-.38.48-.06,1.36-.19,2.36-.52,2.05-.67,3.56-1.82,5.49-3.31,1.75-1.35,2.3-1.99,3.15-1.83.91.17,1.46,1.15,1.69,1.55.99,1.76.05,2.95,1.13,4.29.49.6,1.13.93,1.39,1.05.74.33,1.39.35,1.79.35.73,0,1.23,0,1.7-.35.59-.44.72-1.13.74-1.22.05-.29.03-.54,0-.7Z"/>
          <path class="cls-1" d="m171.84,29.21c.16,1.46.19,3.6-.52,6.02-.37,1.28-1.08,3.59-3.14,5.69-1.24,1.27-2.53,2.01-3.4,2.42.14.27.56.97,1.37,1.27.37.14.86.2,1.63,0,2.36-.62,3.99-2.92,4.38-3.49,1.29-1.87,1.68-3.61,1.77-4.05.15-.75.54-2.76-.23-5.11-.31-.94-.71-1.66-1.01-2.15l-.86-.59Z"/>
        </g>
        <g>
          <path class="cls-1" d="m153.62,151.97v.33c-.02-.06-.04-.11-.06-.16.02-.06.04-.11.06-.17Z"/>
          <path class="cls-1" d="m153.56,152.14c-.02.06-.04.11-.06.16v-.33c.02.06.04.11.06.17Z"/>
          <path class="cls-1" d="m76.78,129.64c1.68.41,3.02.65,3.98.79.75.11,1.47.2,2.16.73.63.49.96,1.12,1.13,1.57-1.34-.32-2.42-.54-3.14-.68-1.29-.24-2.11-.35-3.01-.98-.4-.28-.69-.58-.87-.78l-.25-.65Z"/>
          <path class="cls-1" d="m134.2,138.58l-.41.61c-1.2.28-2.1.03-4.03-.43,0,0-.44-.11-1.21-.28-.32-.34-.49-.67-.57-.82-.23.18-.44.37-.67.56-.97-.21-2.18-.46-3.49-.71-.07,0-.14-.03-.21-.04-.32-.36-.81-1.01-1.12-1.99.02.24,0,.6-.09,1-.04.14-.11.44-.26.76-1.19-.17-2.64-.31-4.29-.36l-.55-.02h-.09l-.55.02c-1.41.04-2.66.14-3.72.27-.13-.28-.19-.54-.23-.67-.09-.41-.1-.77-.09-1-.27.89-.71,1.49-1.01,1.87h0c-.33.05-.62.1-.91.16-1.11.21-2.14.42-3.02.6-.18-.15-.37-.3-.55-.45-.06.13-.19.38-.42.66h0c-1.2.26-1.96.44-1.96.44-1.56.37-2.44.6-3.35.53h0l-.47-.72c.04-1.04.2-2.24.59-3.54.38-1.26.61-1.97,1.27-2.52,1.19-1.03,2.9-.76,3.4-.66.3.27.6.56.91.83.19-.23.65-.75,1.45-1,1.12-.37,2.09.07,2.31.17.87-.23,1.65-.36,2.31-.43.61-.07,1.48-.13,2.53-.09.71.04,1.33.11,1.87.2.54-.09,1.16-.16,1.87-.2,1.05-.05,1.92.02,2.53.09.65.08,1.44.21,2.31.43.22-.1,1.18-.54,2.31-.17.79.26,1.26.78,1.45,1,.3-.27.6-.56.91-.83.5-.09,2.21-.37,3.4.66.65.56.89,1.27,1.27,2.52.39,1.29.55,2.5.59,3.54Z"/>
          <path class="cls-1" d="m100.49,137.1c-.04.77-.14,1.43-.26,1.95-1.34-.45-2.17-1.33-2.45-1.63-1.2-1.28-1.06-2.19-2.04-3.41-.07-1.78-.05-4.08.09-6.76.9.63,2.24,1.79,3.27,3.61,1.52,2.73,1.44,5.32,1.39,6.24Z"/>
          <path class="cls-1" d="m146.99,132.75c-.27.26-2.81,2.6-3.81,4.02-.2.28-.36.54-.36.54-.38.6-.67,1.19-1.08,2.02-.49.99-.65,1.42-.82,1.77-.41.82-1.24,1.92-3.1,2.94-.79.25-2,.51-3.47.45-.89-.03-1.52-.17-2.62-.43-2.14-.49-2.83-.88-4.74-1.4-1.54-.42-2.74-.6-3.54-.72-1.39-.22-3.29-.4-5.59-.33h-.07c-.07,0-.13,0-.2,0h-.09s-.09,0-.14,0h-.11c-2.3-.07-4.21.11-5.6.33-.79.12-1.99.3-3.54.72-1.91.52-2.6.91-4.74,1.4-1.1.26-1.73.4-2.62.43-1.47.06-2.68-.21-3.47-.45-1.86-1.02-2.69-2.12-3.1-2.94-.17-.35-.33-.78-.82-1.77-.41-.83-.7-1.43-1.08-2.02,0,0-.16-.26-.36-.54-1-1.42-3.54-3.76-3.81-4.02.76.05,1.99.22,3.32.88,1.12.56,1.84,1.22,2.09,1.45.48.46.79.88,1.03,1.28.09.15.16.3.25.47.25.52.42,1.02.75,1.57,0,0,0,.03.02.04,0,0,0,0,0,.02.18.29.41.6.73.95.33.35,1.42,1.49,3.18,1.93,1.34.33,2.31.05,4.44-.45,0,0,2.89-.69,6.47-1.37,1.54-.3,3.74-.62,6.5-.69l.6-.03h.09l.6.03c2.76.07,4.96.39,6.5.69,3.58.68,6.48,1.37,6.48,1.37,2.14.5,3.1.78,4.44.45.79-.2,1.46-.54,1.97-.89.62-.42,1.03-.85,1.21-1.04,1.5-1.6,1.08-2.68,2.78-4.32.25-.23.96-.89,2.09-1.45,1.33-.66,2.56-.83,3.32-.88Z"/>
          <polygon class="cls-1" points="117.87 138.77 117.87 138.78 117.81 138.77 117.87 138.77"/>
          <path class="cls-1" d="m117.82,141.62s.04,0,.06,0h0s-.06,0-.06,0Z"/>
          <path class="cls-1" d="m160.03,134.69c-2.25,2.24-5.47,2.54-6.28,2.62-2.04.19-3.55-.24-5.42.8-.44.25-.8.53-1.1.79l.04.07c-1.34,1.55-2.13,2.99-2.59,4.03-.93,2.06-1.74,5.06-3.2,7.61-.18.32-.55.94-1.28,1.37-.96.6-2.01.54-2.58.46-.94-.06-2.31-.2-3.92-.59-1.79-.43-2.36-.81-4.55-1.61-1.33-.48-3.99-1.44-7.18-2.02-1.67-.3-3.16-.44-4.4-.51-1.25.07-2.73.21-4.4.51-3.19.59-5.85,1.54-7.18,2.02-2.18.79-2.76,1.17-4.55,1.61-1.62.39-2.99.53-3.92.59-.57.08-1.62.13-2.58-.46-.73-.43-1.1-1.05-1.28-1.37-1.47-2.55-2.28-5.55-3.2-7.61-.46-1.04-1.25-2.48-2.59-4.03l.04-.07c-.29-.26-.65-.55-1.1-.79-1.86-1.04-3.37-.61-5.42-.8-.8-.08-4.03-.38-6.28-2.62-1.71-1.69-2.74-4.4-2.09-6.58.11-.4.39-1.27,1.22-1.92.14-.11,1.18-.91,2.54-.7.3.05.92.15,1.43.65.35.36.9,1.15.58,1.7-.27.48-1.14.68-2,.26-.23-.13-.44-.26-.67-.4-.12.02-.29.07-.47.18-.43.26-.57.69-.66,1-.06.2-.33,1.1.09,1.96.33.69.95,1.05,1.71,1.35,1.74.71,2.98.65,4.58.83,1.54.17,3.7.42,5.56,1.62,1.02.64,1.74,1.45,2.24,2.17l.5.44c.41.43.66.45,1.28,1.41,1.4,2.17,1.27,3.22,2.68,5.07.55.71,1.17,1.49,2.26,2.13,1.49.85,2.95.88,4.22.88,1.48,0,2.51-.24,4.51-.72,2.91-.7,3.4-1.1,5.44-1.53,1.13-.24,2.83-.5,4.96-.49l2.52.06h.09l2.52-.06c2.14,0,3.83.26,4.96.49,2.03.43,2.52.83,5.44,1.53,1.99.48,3.02.73,4.51.72,1.27,0,2.72-.03,4.22-.88,1.09-.63,1.71-1.42,2.26-2.13,1.41-1.84,1.28-2.89,2.68-5.07.61-.95.87-.97,1.28-1.41l.5-.44c.5-.73,1.22-1.53,2.24-2.17,1.86-1.2,4.02-1.45,5.56-1.62,1.61-.18,2.85-.12,4.58-.83.76-.3,1.38-.66,1.71-1.35.43-.86.15-1.76.09-1.96-.09-.31-.24-.75-.66-1-.18-.11-.35-.16-.47-.18-.23.13-.44.26-.67.4-.86.42-1.73.22-2-.26-.32-.55.23-1.34.58-1.7.51-.5,1.12-.6,1.43-.65,1.36-.21,2.4.59,2.54.7.83.65,1.11,1.52,1.22,1.92.65,2.17-.38,4.89-2.09,6.58Z"/>
          <polygon class="cls-1" points="117.81 138.77 117.75 138.78 117.75 138.77 117.81 138.77"/>
          <g>
            <path class="cls-1" d="m158.36,129.64c-1.68.41-3.02.65-3.98.79-.75.11-1.47.2-2.16.73-.63.49-.96,1.12-1.13,1.57,1.34-.32,2.42-.54,3.14-.68,1.29-.24,2.11-.35,3.01-.98.4-.28.69-.58.87-.78l.25-.65Z"/>
            <path class="cls-1" d="m139.42,133.35s-.09.09-.12.11c-1.56,1.5-1.17,2.5-2.55,3.96-.24.25-.87.93-1.89,1.4-.09-.48-.18-1.06-.21-1.72-.04-.92-.13-3.51,1.4-6.24,1.03-1.82,2.37-2.98,3.27-3.61.11,2.35.14,4.42.1,6.1Z"/>
            <polygon class="cls-1" points="117.32 138.77 117.27 138.78 117.27 138.77 117.32 138.77"/>
            <path class="cls-1" d="m117.33,141.62s-.04,0-.06,0h0s.06,0,.06,0Z"/>
            <polygon class="cls-1" points="117.39 138.77 117.39 138.78 117.32 138.77 117.39 138.77"/>
          </g>
          <polygon class="cls-1" points="117.27 138.77 117.32 138.77 117.27 138.78 117.27 138.77"/>
          <polygon class="cls-1" points="117.39 138.78 117.32 138.77 117.39 138.77 117.39 138.78"/>
          <polygon class="cls-1" points="117.75 138.77 117.81 138.77 117.75 138.78 117.75 138.77"/>
          <polygon class="cls-1" points="117.87 138.78 117.81 138.77 117.87 138.77 117.87 138.78"/>
          <path class="cls-1" d="m135.63,141.33c.79-.2,1.46-.54,1.97-.89-.43.42-.99.83-1.75,1.25-.73.22-1.83.46-3.19.42-.81-.03-1.39-.16-2.4-.4-1.96-.44-2.59-.8-4.34-1.28-1.42-.39-2.51-.55-3.24-.66-1.29-.2-3.05-.37-5.19-.3-.06,0-.12,0-.18,0h-.09s-.09,0-.13,0h-.06c-2.13-.07-3.9.1-5.18.3-.73.11-1.83.27-3.24.66-1.76.47-2.39.83-4.35,1.28-1,.24-1.59.37-2.4.4-1.34.05-2.46-.2-3.19-.42-1.7-.95-2.47-1.95-2.85-2.7-.08-.15-.14-.31-.24-.53.18.29.41.6.73.95.33.35,1.42,1.49,3.18,1.93,1.34.33,2.31.05,4.44-.45,0,0,2.89-.69,6.47-1.37,1.54-.3,3.74-.62,6.5-.69l.6-.03h.09l.6.03c2.76.07,4.96.39,6.5.69,3.58.68,6.48,1.37,6.48,1.37,2.14.5,3.1.78,4.44.45Z"/>
        </g>
      </g>
      <polyline class="cls-1" points=".59 108.06 6.3 109.06 1.81 107.92"/>
      <polyline class="cls-1" points="221.21 105.48 215.5 106.48 219.99 105.34"/>
      <polyline class="cls-1" points="233.93 106.78 229.43 107.93 235.15 106.92"/>
      <polyline class="cls-1" points="225.32 66.65 219.61 67.66 224.1 66.51"/>
      <polyline class="cls-1" points="15.24 70.54 20.95 71.54 16.46 70.4"/>
    </g>
  </g>
</svg>